<?xml version="1.0" standalone="no"?>
<!DOCTYPE svg PUBLIC "-//W3C//DTD SVG 20010904//EN"
 "http://www.w3.org/TR/2001/REC-SVG-20010904/DTD/svg10.dtd">
<svg version="1.0" xmlns="http://www.w3.org/2000/svg"
 width="1271.000000pt" height="444.000000pt" viewBox="0 0 1271.000000 444.000000"
 preserveAspectRatio="xMidYMid meet">

<g transform="translate(0.000000,444.000000) scale(0.100000,-0.100000)"
fill="#0066ff" stroke="none">
<path d="M6720 4374 c-511 -33 -826 -78 -1305 -184 -325 -72 -607 -156 -1335
-401 -574 -192 -763 -251 -1005 -314 -306 -80 -562 -127 -840 -156 -161 -17
-718 -17 -915 -1 -340 29 -780 95 -1179 177 -68 14 -127 22 -132 19 -5 -3 -9
-739 -9 -1760 l0 -1754 6355 0 6355 0 -2 1291 -3 1291 -395 190 c-1418 681
-2261 1025 -3120 1274 -573 166 -1053 261 -1570 310 -154 15 -764 27 -900 18z"/>
</g>
</svg>
