<?xml version="1.0" standalone="no"?>
<!DOCTYPE svg PUBLIC "-//W3C//DTD SVG 20010904//EN"
 "http://www.w3.org/TR/2001/REC-SVG-20010904/DTD/svg10.dtd">
<svg version="1.0" xmlns="http://www.w3.org/2000/svg"
 width="1271.000000pt" height="438.000000pt" viewBox="0 0 1271.000000 438.000000"
 preserveAspectRatio="xMidYMid meet">

<g transform="translate(0.000000,438.000000) scale(0.100000,-0.100000)"
fill="#000000" stroke="none">
<path d="M6905 4339 c-435 -14 -884 -73 -1339 -176 -362 -82 -646 -166 -1301
-387 -976 -329 -1344 -424 -1860 -477 -158 -16 -753 -17 -910 -1 -515 53 -650
74 -1310 205 -94 19 -173 32 -177 30 -5 -2 -8 -798 -8 -1769 l0 -1764 6355 0
6355 0 0 1286 0 1285 -152 73 c-84 40 -272 131 -418 201 -1521 732 -2605 1138
-3584 1346 -158 33 -336 65 -443 79 -40 6 -108 15 -150 20 -167 22 -386 40
-548 45 -93 3 -197 7 -230 8 -33 2 -159 0 -280 -4z"/>
</g>
</svg>
